<?xml version="1.0" standalone="no"?>
<!DOCTYPE svg PUBLIC "-//W3C//DTD SVG 20010904//EN"
 "http://www.w3.org/TR/2001/REC-SVG-20010904/DTD/svg10.dtd">
<svg version="1.0" xmlns="http://www.w3.org/2000/svg"
 width="612.000000pt" height="408.000000pt" viewBox="0 0 612.000000 408.000000"
 preserveAspectRatio="xMidYMid meet">

<g transform="translate(0.000000,408.000000) scale(0.100000,-0.100000)"
fill="#000000" stroke="none">
<path d="M1303 3844 c-13 -3 -23 -10 -23 -15 0 -11 4 -11 56 1 22 5 53 6 70 1
25 -7 23 -8 -19 -8 -26 0 -53 -5 -59 -11 -7 -7 -20 -12 -30 -12 -10 0 -18 -4
-18 -8 0 -5 -24 -35 -52 -67 -29 -32 -59 -67 -66 -79 -11 -19 -12 -19 -5 9 3
16 12 36 20 43 19 19 16 24 -6 12 -28 -14 -36 -12 -21 5 10 12 10 15 -1 15 -9
0 -10 3 -4 8 6 4 19 18 30 31 l20 24 -33 -19 c-19 -10 -61 -48 -94 -83 -89
-95 -124 -191 -98 -274 8 -23 17 -46 22 -51 4 -6 8 -30 8 -55 0 -61 16 -115
43 -147 24 -27 97 -50 108 -33 3 6 31 -12 64 -40 32 -29 81 -67 109 -86 28
-19 73 -57 100 -85 38 -39 47 -55 44 -75 -5 -22 -2 -25 22 -25 15 0 33 -6 39
-13 9 -11 2 -17 -30 -27 -22 -8 -42 -16 -44 -19 -2 -4 28 -21 66 -38 l69 -31
6 25 c4 15 3 31 -2 38 -69 91 -104 140 -130 177 -21 30 -49 54 -80 69 -27 13
-74 45 -105 71 -30 27 -61 48 -68 48 -7 0 -9 5 -5 12 4 6 3 8 -3 5 -5 -3 -22
0 -37 8 -14 8 -24 10 -21 5 9 -14 -7 -12 -28 4 -16 13 -34 76 -21 76 3 0 20
-11 37 -24 27 -20 67 -39 87 -41 3 0 26 -16 50 -36 58 -46 119 -83 127 -75 3
3 14 1 24 -5 27 -14 23 0 -8 34 -19 20 -22 28 -11 24 12 -4 15 -2 11 9 -3 7
-8 14 -12 14 -4 0 -26 16 -49 36 -24 20 -48 34 -55 31 -35 -13 -120 13 -182
58 -36 25 -65 50 -65 56 0 9 20 9 30 -1 15 -15 89 -60 113 -70 31 -11 58 -3
36 11 -22 13 -5 19 55 21 43 1 56 5 52 15 -3 7 -1 13 4 13 10 0 14 -15 11 -34
-1 -5 5 -3 15 4 10 9 12 16 5 18 -17 6 -13 19 8 25 28 7 15 -30 -25 -73 -33
-35 -31 -50 6 -58 8 -2 17 -8 18 -13 2 -5 8 -9 13 -9 6 0 7 5 4 10 -4 6 7 13
24 16 17 4 28 10 25 15 -3 5 2 9 10 9 9 0 16 4 16 10 0 5 7 7 16 3 14 -5 16
-2 10 20 -9 37 6 34 29 -5 10 -18 25 -39 32 -46 6 -7 10 -19 7 -26 -11 -29 20
-29 44 0 l24 29 -6 -27 c-8 -36 2 -62 19 -48 18 15 29 -4 16 -28 -7 -14 -6
-24 3 -37 13 -18 14 -18 24 1 11 18 11 18 12 -3 0 -16 15 -28 67 -53 37 -17
82 -42 100 -56 17 -13 36 -24 41 -24 6 0 47 43 92 95 45 51 87 96 93 98 5 1
11 10 13 19 1 13 -15 19 -81 29 -105 15 -211 8 -262 -18 -33 -18 -38 -24 -36
-54 1 -24 0 -27 -4 -9 -3 14 -8 27 -13 30 -11 8 -18 96 -9 112 6 8 9 -4 9 -34
0 -52 6 -56 49 -33 57 29 155 37 252 20 112 -19 135 -19 209 2 50 14 68 14
113 4 62 -14 99 -47 143 -129 30 -57 79 -106 95 -96 6 3 -5 24 -24 47 -19 23
-40 53 -47 67 -12 24 -12 24 16 -4 32 -32 103 -68 117 -59 5 3 7 14 4 24 -3
11 -1 16 5 13 5 -3 7 -15 4 -26 -5 -20 -1 -20 71 -16 69 5 79 8 101 34 23 26
24 33 18 116 -5 87 -17 128 -37 128 -6 0 -5 9 2 23 9 17 9 20 -1 10 -7 -6 -19
-9 -26 -6 -15 5 -57 -78 -99 -194 -12 -34 -25 -60 -28 -57 -3 3 -3 12 0 20 10
27 -68 120 -93 110 -9 -3 -12 -1 -9 4 3 6 1 10 -5 10 -20 0 -99 71 -130 117
-30 45 -41 74 -15 39 31 -41 66 -76 75 -76 26 0 2 133 -26 144 -7 3 -11 12 -8
20 4 10 -1 15 -13 15 -10 1 -34 3 -54 7 -28 5 -49 -1 -97 -25 -72 -37 -108
-39 -165 -10 -74 38 -98 62 -149 149 -71 121 -108 162 -177 199 -68 36 -141
48 -206 34 l-39 -9 54 -31 c30 -17 69 -44 85 -58 l30 -27 -30 20 c-47 31 -133
72 -149 72 -8 0 -19 6 -23 14 -21 35 -135 64 -200 50z m90 -91 c3 -5 -11 -9
-31 -11 -21 -1 -42 -9 -48 -17 -6 -8 -15 -11 -19 -7 -4 4 -6 -5 -3 -20 4 -21
-2 -34 -23 -54 l-28 -27 11 34 c6 19 15 43 21 54 7 13 6 20 -2 23 -17 6 -13
20 7 25 29 8 111 7 115 0z m167 -3 c0 -12 -8 -12 -35 0 -18 8 -17 9 8 9 15 1
27 -3 27 -9z m-213 -36 c-3 -3 -12 -4 -19 -1 -8 3 -5 6 6 6 11 1 17 -2 13 -5z
m54 -6 c8 -7 21 -22 29 -33 8 -11 0 -7 -20 10 -19 17 -37 31 -39 33 -2 1 0 2
5 2 6 0 17 -6 25 -12z m299 -48 c0 -5 -4 -10 -9 -10 -6 0 -13 5 -16 10 -3 6 1
10 9 10 9 0 16 -4 16 -10z m30 -51 c15 -28 5 -23 -15 7 -9 15 -12 23 -6 20 6
-4 16 -16 21 -27z m-293 -26 c-4 -3 3 -18 15 -31 13 -14 19 -23 13 -21 -33 15
-62 28 -80 35 -18 6 -17 8 10 14 42 10 49 11 42 3z m67 -38 c16 -12 17 -15 4
-15 -8 0 -21 7 -28 15 -16 19 -1 19 24 0z m242 -21 c26 -48 15 -124 -25 -177
-18 -23 -39 -57 -47 -76 -19 -41 -27 -36 -14 9 9 32 9 32 -40 -20 -28 -30 -50
-49 -50 -43 0 16 91 114 100 108 14 -9 69 63 76 100 13 73 -15 114 -82 121
-70 7 -68 15 4 12 57 -3 63 -5 78 -34z m-473 -21 c-3 -7 -16 -13 -30 -13 -13
0 -36 -6 -51 -14 -31 -15 -122 -21 -122 -7 0 16 18 22 23 9 4 -9 8 -10 14 -3
4 6 24 12 43 13 52 4 90 13 90 21 0 4 8 7 19 7 11 0 17 -5 14 -13z m707 -38
c13 -14 21 -25 18 -25 -2 0 -15 11 -28 25 -13 14 -21 25 -18 25 2 0 15 -11 28
-25z m-925 -27 c-4 -18 -8 -34 -11 -37 -6 -7 -5 35 2 53 10 27 15 18 9 -16z
m231 -53 c-7 -26 -43 -65 -60 -65 -6 0 1 11 16 25 14 13 30 39 34 57 4 18 9
27 11 20 3 -7 2 -24 -1 -37z m787 -11 c39 -46 30 -43 -18 7 -22 22 -33 37 -25
34 8 -4 28 -22 43 -41z m362 18 c-3 -3 -11 0 -18 7 -9 10 -8 11 6 5 10 -3 15
-9 12 -12z m-104 -28 c12 -15 11 -16 -10 -9 -16 5 -21 4 -17 -4 4 -7 -1 -11
-13 -11 -11 0 -26 -7 -35 -15 -8 -8 -17 -15 -21 -15 -3 0 -21 -11 -38 -24 -41
-30 -84 -38 -122 -21 l-30 12 37 0 c48 -1 56 7 32 35 -19 23 -19 23 2 6 29
-25 37 -23 102 22 62 43 92 49 113 24z m-1302 -67 c0 -21 -1 -21 -9 -2 -12 28
-12 37 0 30 6 -3 10 -16 9 -28z"/>
<path d="M4652 3592 c-23 -22 -42 -44 -42 -51 0 -6 9 -30 20 -51 19 -37 19
-42 5 -76 -8 -20 -15 -44 -15 -54 0 -38 -25 -42 -85 -15 -79 34 -92 33 -104
-12 -6 -21 -11 -43 -11 -49 0 -23 -39 -46 -69 -42 -17 2 -28 1 -25 -4 3 -4 1
-8 -5 -8 -5 0 -11 6 -14 13 -2 6 -4 0 -3 -15 1 -21 4 -24 15 -15 19 16 14 18
68 -34 44 -43 113 -73 113 -49 0 19 41 22 61 4 20 -18 20 -18 -3 -31 -13 -7
-31 -12 -41 -13 -10 0 -21 -8 -25 -17 -4 -10 -14 -18 -22 -18 -10 0 -14 -8
-11 -25 3 -23 2 -24 -15 -9 -31 27 -44 32 -38 15 4 -11 0 -16 -15 -16 -13 0
-21 -6 -21 -16 0 -9 -10 -28 -22 -42 -11 -15 -18 -19 -15 -10 3 9 3 18 -1 20
-5 2 -20 27 -36 57 -35 69 -71 108 -81 90 -5 -7 0 -19 15 -31 12 -10 18 -18
14 -18 -5 0 -2 -5 6 -10 13 -9 13 -10 0 -10 -8 0 -28 18 -43 40 -20 29 -24 38
-11 33 15 -5 15 -3 -2 22 -10 15 -18 44 -19 64 0 37 -3 39 -44 26 -16 -5 -21
-4 -17 4 14 22 -5 33 -30 16 -29 -19 -44 -12 -44 20 0 32 -44 82 -88 101 -20
8 -137 26 -261 39 -124 13 -243 27 -263 30 -30 5 -38 3 -48 -14 -14 -26 -34
-27 -70 -1 -15 11 -56 33 -91 50 -86 40 -155 41 -242 2 -78 -36 -134 -81 -115
-93 10 -7 10 -9 -1 -9 -11 0 -12 -3 -4 -11 7 -7 23 -7 49 -1 68 18 130 23 154
14 24 -9 80 5 80 20 0 12 48 -1 102 -28 48 -24 98 -83 98 -116 0 -9 13 -27 29
-40 26 -21 31 -35 50 -143 23 -135 29 -237 6 -123 -7 36 -19 76 -25 87 -12 23
-30 20 -30 -5 0 -8 -5 -14 -11 -14 -6 0 -9 7 -5 15 3 8 1 15 -4 15 -16 0 -11
22 8 36 15 12 15 15 2 24 -13 9 -13 10 0 10 12 1 12 2 -2 10 -17 11 -75 3 -84
-11 -3 -5 -13 -9 -22 -9 -14 0 -15 2 -2 10 8 5 12 11 9 15 -3 3 -17 -4 -32
-15 -14 -11 -29 -20 -34 -20 -4 0 1 7 11 15 24 19 19 24 -27 27 -20 2 -33 6
-29 9 57 46 101 74 135 85 38 11 39 13 13 13 -16 1 -50 -12 -76 -29 -48 -31
-91 -35 -150 -13 -38 15 -174 10 -194 -6 -10 -8 -16 -29 -16 -52 0 -37 12 -51
25 -29 16 26 86 50 144 50 64 0 86 -15 55 -36 -39 -27 -54 -48 -54 -77 0 -30
0 -30 -18 -10 -14 16 -20 18 -29 8 -6 -7 -9 -15 -6 -19 3 -3 -4 -3 -16 -1 -38
7 -52 -4 -48 -41 3 -32 17 -61 17 -36 0 7 10 10 23 8 12 -2 21 -9 20 -15 -2
-5 4 -8 13 -4 12 5 13 7 3 14 -8 4 -10 11 -6 16 13 13 42 -13 45 -40 4 -34
-31 -100 -66 -126 -64 -45 -206 -82 -375 -97 -63 -5 -69 -4 -74 15 -3 12 -9
21 -14 21 -5 0 -9 7 -9 15 0 8 -4 15 -10 15 -24 0 -7 20 28 30 20 6 51 18 69
26 17 8 34 14 38 14 10 0 155 70 155 74 0 3 -15 1 -32 -4 -18 -4 -60 -10 -93
-13 -48 -5 -54 -4 -32 4 40 16 33 26 -20 32 -60 6 -157 40 -146 51 4 5 -4 6
-19 4 -16 -3 -28 -1 -28 4 0 5 -6 6 -12 1 -7 -4 -53 -14 -103 -23 -80 -13 -90
-17 -93 -37 -3 -19 -10 -23 -38 -23 -31 0 -34 -2 -24 -19 7 -13 7 -22 0 -26
-5 -3 -10 1 -10 9 0 22 -17 20 -30 -3 -5 -11 -10 -22 -10 -24 0 -9 85 16 102
30 23 20 44 7 25 -15 -8 -10 -29 -47 -46 -84 -24 -49 -42 -73 -69 -90 -37 -23
-41 -24 -66 -27 -7 0 -29 -15 -47 -31 -53 -48 -109 -78 -174 -93 -33 -8 -87
-28 -120 -44 -90 -45 -123 -48 -177 -18 -52 29 -92 68 -48 46 24 -11 24 -11 6
3 -11 9 -25 16 -32 16 -24 0 -64 66 -67 109 -4 73 -27 43 -27 -36 0 -54 23
-91 86 -133 42 -30 58 -64 32 -72 -6 -2 5 -14 26 -26 35 -21 43 -48 11 -35 -9
3 -15 -1 -15 -10 0 -11 -12 -4 -35 20 -19 20 -35 33 -35 30 0 -3 -23 10 -52
29 -76 52 -125 46 -291 -35 -70 -35 -132 -71 -137 -81 -19 -36 -12 -80 19
-111 31 -30 46 -35 70 -20 8 5 24 6 38 0 19 -7 24 -5 29 17 l6 25 18 -28 c19
-33 53 -57 123 -90 l49 -23 -32 40 c-17 22 -36 43 -42 46 -5 4 -21 30 -34 58
-19 41 -23 60 -17 100 5 44 4 49 -11 43 -10 -4 -15 -3 -11 3 4 6 12 9 18 8 7
-1 25 6 41 17 56 37 164 19 216 -37 29 -31 19 -32 -31 -3 -53 30 -94 32 -109
6 -8 -16 -5 -26 15 -49 31 -37 33 -52 4 -26 -16 14 -23 16 -26 6 -3 -6 -9 -9
-14 -6 -6 3 -8 -10 -5 -32 2 -21 9 -40 15 -42 6 -2 11 -8 11 -13 0 -6 -4 -7
-10 -4 -16 10 -11 -8 10 -35 22 -28 26 -45 8 -34 -13 8 -5 -7 28 -51 35 -46
57 -112 51 -148 -5 -30 -2 -34 29 -43 18 -6 37 -8 41 -4 4 4 28 12 53 19 52
14 140 70 140 89 0 12 7 14 49 14 14 1 31 7 39 14 17 18 43 18 36 1 -7 -20
-51 -50 -130 -90 -125 -63 -206 -78 -290 -52 -19 6 -21 3 -18 -25 7 -58 54
-146 105 -196 39 -39 49 -55 49 -82 0 -35 -34 -112 -50 -112 -6 0 -10 -11 -10
-23 0 -21 8 -26 55 -37 54 -13 77 -40 35 -40 -11 0 -19 -3 -19 -7 4 -23 -3
-31 -21 -26 -11 3 -20 0 -20 -6 0 -6 5 -11 10 -11 6 0 10 -6 10 -12 0 -9 -18
-14 -51 -15 -37 -1 -49 1 -41 9 6 6 22 11 37 11 15 0 23 3 18 8 -10 10 -84
-11 -78 -22 7 -11 -53 -52 -65 -44 -6 3 -7 -1 -4 -9 3 -9 1 -16 -6 -16 -6 0
-8 -5 -4 -12 4 -6 3 -8 -4 -4 -6 3 -19 -7 -28 -24 -19 -30 -41 -42 -31 -16 4
10 1 13 -8 9 -8 -3 -12 -10 -8 -16 9 -15 -24 -36 -47 -30 -14 4 -20 0 -20 -11
0 -9 -7 -16 -15 -16 -8 0 -31 -9 -50 -20 -20 -11 -40 -18 -46 -15 -5 3 -6 -1
-3 -10 4 -9 3 -15 -2 -13 -5 1 -21 -6 -37 -16 -15 -10 -42 -22 -59 -25 -17 -4
-34 -13 -36 -20 -3 -9 0 -11 8 -6 8 5 11 4 6 -3 -4 -6 -13 -9 -20 -6 -28 11
-74 -80 -88 -175 -11 -73 -10 -79 11 -107 12 -16 24 -43 27 -59 6 -36 57 -92
101 -111 21 -9 72 -14 147 -14 63 0 127 -5 143 -11 15 -5 86 -11 158 -11 142
-1 188 11 204 55 17 45 35 51 87 27 40 -17 53 -19 76 -9 51 21 33 35 -43 35
l-72 -1 -12 42 c-11 35 -10 45 2 62 18 26 43 27 43 3 0 -52 83 -78 153 -49 18
8 42 12 54 11 26 -4 63 38 63 72 0 32 -56 94 -86 94 -12 0 -27 8 -33 17 -8 16
-15 15 -78 -11 -103 -44 -217 -86 -220 -82 -2 1 60 32 137 69 174 82 247 125
391 228 118 85 386 335 499 466 86 100 136 133 76 50 -16 -22 -17 -30 -7 -40
10 -10 16 -7 33 13 44 55 122 130 135 130 3 0 15 7 25 17 17 16 17 15 2 -17
-36 -70 22 -114 99 -75 20 10 33 12 35 5 2 -6 15 -2 29 10 14 11 29 18 33 15
5 -3 21 0 37 7 15 6 33 12 38 13 6 0 8 7 6 15 -3 8 -6 34 -9 58 -6 58 -31 71
-110 54 -30 -6 -57 -10 -58 -9 -2 2 25 14 59 27 34 13 82 37 106 52 43 29 44
29 37 6 -27 -98 -13 -150 44 -161 93 -19 343 154 365 252 7 32 -14 81 -35 81
-15 0 -12 20 3 21 6 0 32 15 57 33 35 25 55 51 86 114 23 46 51 93 63 106 11
12 21 30 21 39 0 23 -42 14 -155 -34 -49 -22 -98 -39 -109 -39 -11 0 23 32 83
79 144 113 243 207 285 271 50 76 45 91 -13 37 -92 -86 -170 -109 -205 -60
-10 14 -15 24 -10 22 5 -3 21 -11 36 -18 44 -22 97 0 170 67 50 48 59 62 54
80 -4 12 -10 21 -14 19 -4 -1 -7 1 -7 5 0 12 -39 36 -50 31 -5 -4 -7 -3 -3 2
4 4 2 13 -5 20 -7 7 -29 39 -50 71 -109 169 -161 224 -189 196 -9 -9 -8 -19 5
-47 22 -47 23 -79 1 -71 -16 6 -16 1 1 -61 3 -10 -3 0 -14 22 -11 22 -23 61
-26 87 -5 32 -12 48 -21 48 -17 0 -18 17 -1 23 9 4 8 8 -3 16 -13 9 -12 11 5
11 12 0 26 5 31 10 8 8 26 0 60 -25 27 -19 73 -51 102 -71 29 -19 83 -63 120
-98 l67 -63 53 14 c66 17 105 3 42 -16 -24 -7 -38 -16 -34 -23 4 -6 -1 -8 -15
-3 -34 10 -25 -2 32 -44 30 -22 86 -82 127 -135 40 -53 76 -96 80 -96 4 0 19
-11 35 -25 22 -21 30 -24 42 -14 11 10 16 10 23 0 6 -11 8 -11 12 0 4 12 7 12
21 0 21 -17 21 -27 1 -35 -12 -5 -14 -1 -9 17 4 12 -7 1 -25 -26 -18 -26 -30
-53 -27 -61 3 -7 24 -16 48 -20 36 -6 53 -18 109 -76 37 -38 80 -77 96 -86
l29 -16 -30 7 c-16 4 -39 14 -49 23 -11 9 -16 11 -12 5 5 -9 0 -13 -13 -13
-12 0 -21 5 -21 10 0 6 -4 10 -9 10 -4 0 -6 -11 -3 -25 3 -20 1 -24 -12 -19
-9 3 -16 1 -16 -5 0 -20 60 -68 99 -80 43 -13 121 -15 121 -3 0 9 74 42 96 42
10 0 14 -6 10 -15 -10 -27 39 -18 52 9 8 18 7 27 -6 40 -19 19 -20 19 95 20
53 1 77 6 91 19 10 9 22 14 25 10 4 -3 7 2 7 11 0 14 5 17 24 12 18 -4 26 -2
29 11 3 15 6 13 17 -9 10 -22 11 -34 2 -54 -12 -25 -11 -25 20 -22 29 3 33 7
36 34 2 25 7 31 21 27 10 -2 31 7 49 22 18 15 32 23 32 19 0 -4 5 -3 12 4 17
17 58 15 65 -4 3 -8 0 -27 -8 -42 -7 -15 -15 -30 -17 -34 -2 -3 6 -4 17 -1 10
3 22 14 24 25 5 18 12 20 50 16 47 -5 60 -1 64 19 3 14 -80 83 -100 83 -8 0
-20 6 -26 14 -11 12 -23 10 -84 -20 -46 -22 -86 -34 -113 -34 -48 0 -61 9 -36
24 87 52 93 59 87 83 -8 33 10 60 45 68 16 4 30 10 30 15 0 5 13 17 30 26 16
10 34 30 39 45 11 32 59 60 89 53 13 -4 28 2 41 15 12 12 26 21 31 21 13 0 80
68 80 81 0 5 10 13 23 18 19 7 17 9 -20 16 -24 4 -43 11 -43 17 0 6 -7 8 -15
4 -8 -3 -15 -1 -15 3 0 21 -32 18 -60 -5 -16 -14 -30 -22 -30 -17 0 16 42 49
105 84 33 18 62 36 65 39 8 11 80 20 80 10 0 -5 -5 -12 -10 -15 -6 -4 -9 -22
-7 -40 2 -19 1 -32 -4 -30 -4 3 -10 1 -14 -5 -11 -18 25 -23 50 -6 14 9 44 18
67 20 25 3 48 12 56 23 13 16 14 16 9 1 -5 -15 2 -14 46 9 29 14 59 32 67 38
16 13 50 16 50 5 0 -4 -27 -32 -59 -63 -33 -30 -57 -57 -54 -60 2 -3 -5 -8
-17 -12 -12 -4 -19 -12 -17 -18 7 -19 -26 -67 -43 -64 -10 1 -15 -6 -14 -20 0
-15 -5 -20 -17 -18 -10 2 -20 -2 -23 -10 -3 -8 2 -12 12 -10 9 1 22 -2 28 -7
17 -13 56 40 49 66 -5 16 -4 18 4 6 8 -12 12 -9 20 13 6 16 11 35 11 43 0 11
5 10 22 -6 12 -11 27 -20 32 -19 6 0 5 3 -1 6 -7 2 -13 12 -13 20 0 12 7 14
33 10 17 -3 41 -9 51 -13 13 -5 17 -4 12 4 -5 8 -2 10 8 6 9 -3 13 -11 9 -18
-3 -6 6 0 20 13 37 34 49 78 47 173 -1 46 3 108 10 138 16 72 1 131 -45 177
-39 39 -74 42 -148 16 l-48 -17 -25 32 c-32 41 -78 44 -118 7 -31 -29 -60 -24
-52 9 9 35 -12 93 -41 116 -29 22 -52 20 -91 -11 l-23 -17 22 -21 c18 -17 21
-28 16 -67 -4 -36 -1 -50 13 -64 10 -10 14 -23 10 -30 -4 -7 -7 -29 -5 -49 1
-20 1 -28 -2 -18 -2 10 -10 17 -16 16 -20 -3 -47 12 -47 28 0 19 -22 41 -38
35 -6 -2 -16 7 -21 20 -6 12 -10 17 -10 10 -1 -7 -5 -10 -11 -7 -12 7 -3 -18
21 -60 9 -16 20 -41 24 -55 l7 -25 -17 23 c-9 12 -21 22 -27 22 -6 0 -20 8
-31 18 -20 16 -20 16 -13 -3 15 -41 18 -75 7 -75 -6 0 -11 -10 -11 -23 0 -24
-21 -30 -46 -14 -12 7 -192 -1 -206 -9 -5 -3 -6 -29 -2 -57 l6 -52 -26 29
c-18 20 -26 40 -26 65 l0 36 -47 -3 c-27 -1 -52 -2 -58 -2 -5 -1 -43 2 -82 6
-69 5 -73 5 -73 -15 0 -12 -4 -21 -10 -21 -5 0 -10 -11 -10 -24 0 -14 -5 -28
-11 -32 -6 -3 -8 -16 -5 -28 7 -29 -2 -40 -49 -62 -22 -10 -42 -21 -45 -25
-10 -12 -70 -39 -70 -31 0 4 7 17 15 28 8 10 15 26 15 35 0 16 27 79 56 129 7
14 14 32 14 41 0 9 7 23 17 30 9 8 22 28 30 46 11 27 11 41 -2 90 -17 66 -13
87 23 126 22 23 25 31 14 47 -7 12 -8 21 -2 25 6 3 10 1 10 -5 0 -6 4 -8 10
-5 6 4 5 13 -3 26 -10 16 -9 21 1 28 10 6 7 10 -12 15 -14 3 -26 13 -26 22 0
28 32 72 65 90 30 16 34 16 55 1 l22 -15 -21 -14 c-25 -15 -28 -43 -5 -52 9
-4 14 -9 11 -13 -4 -3 -13 -1 -20 5 -10 9 -18 8 -32 -2 -17 -12 -17 -17 -5
-45 16 -39 45 -57 65 -41 20 17 76 -14 69 -38 -4 -12 -3 -13 3 -4 8 10 12 10
23 -3 7 -8 19 -15 27 -15 11 0 11 4 3 20 -14 26 6 35 56 27 19 -3 34 -3 32 1
-21 46 -69 103 -93 113 -16 7 -47 29 -67 49 -32 31 -92 60 -125 60 -5 0 -28
-17 -51 -38z m183 -72 c3 -5 1 -10 -4 -10 -6 0 -11 5 -11 10 0 6 2 10 4 10 3
0 8 -4 11 -10z m-1103 -163 c-23 -25 -42 -76 -42 -114 0 -16 6 -23 19 -23 11
0 22 -9 26 -19 8 -27 45 -49 91 -53 46 -4 118 -43 108 -59 -3 -6 -1 -15 6 -19
25 -15 -13 -55 -64 -67 -25 -5 -43 -6 -40 -2 3 5 -11 16 -30 26 -20 9 -36 20
-36 25 0 4 -9 8 -20 8 -22 0 -26 -10 -9 -27 24 -24 -49 2 -100 36 -30 20 -70
45 -89 56 -19 11 -48 32 -63 46 -16 15 -31 24 -34 21 -3 -3 -5 2 -5 11 0 25
17 29 51 12 17 -9 49 -23 71 -31 43 -15 42 -16 53 49 4 28 21 53 59 93 29 30
56 54 61 54 5 0 -1 -11 -13 -23z m1951 -136 c4 -4 -14 -8 -40 -8 -26 0 -42 2
-35 5 6 2 9 8 6 14 -7 11 55 1 69 -11z m-333 -36 c0 -8 -2 -15 -4 -15 -2 0 -6
7 -10 15 -3 8 -1 15 4 15 6 0 10 -7 10 -15z m-1233 -49 c15 -12 38 -28 50 -35
23 -12 45 -46 58 -91 5 -17 -2 -12 -21 18 -36 53 -46 54 -27 1 7 -23 12 -46
11 -51 -2 -5 -30 23 -62 62 -61 73 -77 81 -103 54 -14 -14 -17 -14 -25 -1 -4
9 -4 27 2 41 8 22 16 26 49 26 27 0 49 -8 68 -24z m1513 3 c-13 -9 -13 -11 -1
-16 9 -3 -8 -12 -38 -20 -29 -7 -67 -23 -83 -35 l-30 -21 7 24 8 24 -24 -20
c-13 -11 -27 -24 -31 -30 -11 -15 -9 -74 3 -97 6 -11 8 -22 6 -25 -9 -9 -37
55 -37 85 0 29 38 89 68 107 38 23 183 45 152 24z m-2334 -34 c-8 -8 -21 -15
-28 -15 -8 1 -6 6 6 15 26 20 42 19 22 0z m49 -15 c-27 -12 -35 -12 -35 0 0 6
12 10 28 9 24 0 25 -1 7 -9z m-8 -56 c-3 -3 -12 -4 -19 -1 -8 3 -5 6 6 6 11 1
17 -2 13 -5z m941 -19 c-3 -3 -9 2 -12 12 -6 14 -5 15 5 6 7 -7 10 -15 7 -18z
m1192 15 c0 -5 -4 -10 -10 -10 -5 0 -10 5 -10 10 0 6 5 10 10 10 6 0 10 -4 10
-10z m-2130 -47 c0 -5 -8 -17 -17 -28 -14 -18 -15 -18 -9 -2 3 10 6 23 6 28 0
5 5 9 10 9 6 0 10 -3 10 -7z m20 -10 c0 -5 -10 -19 -21 -33 l-21 -25 18 33
c18 32 24 38 24 25z m2510 -7 c0 -2 -7 -7 -16 -10 -8 -3 -12 -2 -9 4 6 10 25
14 25 6z m-2549 -70 c5 3 9 -2 9 -12 0 -13 -3 -14 -15 -4 -8 7 -15 18 -14 24
0 7 2 6 6 -2 2 -6 9 -10 14 -6z m779 -21 c-14 -16 -40 -20 -40 -6 0 10 17 19
39 20 11 1 11 -2 1 -14z m-1641 -11 c-13 -7 -50 -13 -81 -14 -32 0 -58 -4 -58
-9 0 -5 17 -16 38 -25 41 -17 80 -50 100 -84 14 -25 1 -29 -22 -7 -16 17 -76
21 -76 5 0 -5 -4 -10 -10 -10 -24 0 -7 21 21 27 22 4 27 8 17 14 -21 14 -65
10 -108 -8 -34 -15 -38 -21 -33 -42 4 -17 2 -22 -6 -17 -6 4 -11 1 -11 -6 0
-9 -3 -9 -10 2 -8 13 -10 12 -10 -4 0 -11 -3 -17 -6 -13 -7 7 -64 -12 -64 -23
0 -4 11 -5 25 -2 21 4 25 0 25 -19 0 -19 2 -21 10 -9 7 11 10 11 10 2 0 -10 5
-10 20 -2 14 7 26 8 38 1 15 -9 14 -10 -8 -10 -14 0 -47 -5 -75 -12 -106 -25
-132 -8 -75 49 16 17 30 35 30 40 0 5 9 17 21 28 12 10 28 31 35 47 8 15 36
41 62 57 26 16 46 33 44 37 -3 8 62 17 137 19 41 1 42 0 20 -12z m2415 0 c28
-11 17 -24 -18 -24 -20 0 -36 -6 -39 -14 -4 -11 -16 -13 -41 -9 -36 6 -73 -9
-186 -73 -30 -17 -67 -34 -83 -38 -15 -4 -46 -23 -69 -44 -42 -37 -42 -37 -18
-5 13 18 48 44 79 58 31 15 92 50 136 80 44 29 94 57 110 63 34 12 105 15 129
6z m-1627 -44 c-1 -12 -5 -16 -10 -11 -5 5 -6 14 -3 20 11 16 15 13 13 -9z
m843 -45 c0 -17 -2 -17 -10 -5 -5 8 -10 24 -10 35 0 17 2 17 10 5 5 -8 10 -24
10 -35z m-936 17 c3 -5 -1 -9 -9 -9 -8 0 -12 4 -9 9 3 4 7 8 9 8 2 0 6 -4 9
-8z m-37 -37 c0 -8 -7 -15 -15 -15 -12 0 -12 3 -2 15 7 8 13 15 15 15 1 0 2
-7 2 -15z m82 11 c-2 -2 -13 -8 -25 -14 -16 -9 -21 -8 -21 4 0 8 10 14 25 14
14 0 23 -2 21 -4z m-869 -40 c0 -2 -7 -7 -16 -10 -8 -3 -12 -2 -9 4 6 10 25
14 25 6z m816 -10 c-30 -12 -30 -12 -9 -27 22 -15 16 -48 -6 -35 -6 4 -10 2
-9 -4 2 -7 -4 -14 -12 -16 -55 -12 -112 -32 -95 -34 14 -1 6 -8 -25 -22 -53
-24 -260 -39 -260 -19 0 6 14 11 30 11 30 0 246 67 265 83 6 4 19 14 30 22
l20 15 -20 -6 c-17 -6 -17 -3 5 18 19 19 36 25 70 25 45 1 45 1 16 -11z m948
2 c-13 -24 -37 -48 -47 -48 -6 0 2 14 18 30 31 32 41 38 29 18z m-934 -12 c0
-3 -4 -8 -10 -11 -5 -3 -10 -1 -10 4 0 6 5 11 10 11 6 0 10 -2 10 -4z m-160
-31 c-7 -9 -15 -13 -19 -10 -3 3 1 10 9 15 21 14 24 12 10 -5z m-44 -27 c-9
-5 -22 -7 -29 -4 -7 2 -4 5 6 5 9 1 17 6 17 12 0 5 5 7 11 3 8 -5 6 -10 -5
-16z m-1594 -22 c2 -19 0 -32 -4 -30 -8 5 -12 64 -4 64 2 0 6 -15 8 -34z m976
-13 c-10 -2 -26 -2 -35 0 -10 3 -2 5 17 5 19 0 27 -2 18 -5z m2137 -53 c-3 -5
-11 -10 -16 -10 -6 0 -7 5 -4 10 3 6 11 10 16 10 6 0 7 -4 4 -10z m-3070 -20
c10 -11 16 -20 13 -20 -3 0 -13 9 -23 20 -10 11 -16 20 -13 20 3 0 13 -9 23
-20z m635 16 c0 -3 -4 -8 -10 -11 -5 -3 -10 -1 -10 4 0 6 5 11 10 11 6 0 10
-2 10 -4z m2381 -14 c-7 -2 -18 1 -23 6 -8 8 -4 9 13 5 13 -4 18 -8 10 -11z
m-715 -17 c-11 -8 -29 -15 -40 -14 -15 0 -10 4 14 13 46 18 48 18 26 1z m628
-41 c9 -4 21 -15 27 -25 7 -15 6 -17 -6 -13 -9 4 -15 1 -15 -7 0 -7 -7 -3 -16
9 -8 12 -22 22 -30 22 -8 0 -14 5 -14 10 0 11 30 13 54 4z m391 -14 c3 -5 1
-10 -4 -10 -6 0 -11 5 -11 10 0 6 2 10 4 10 3 0 8 -4 11 -10z m105 -25 c17 -9
30 -21 30 -27 0 -6 -9 -3 -20 7 -11 10 -20 13 -20 7 0 -7 -9 -3 -20 8 -11 11
-27 20 -35 20 -8 0 -15 4 -15 10 0 10 29 1 80 -25z m-132 6 c3 -9 -1 -11 -16
-7 -11 4 -23 2 -27 -4 -3 -6 -11 -7 -17 -4 -7 5 -4 12 8 21 22 16 45 14 52 -6z
m-3488 -4 c0 -2 -15 -16 -32 -33 l-33 -29 29 33 c28 30 36 37 36 29z m595
-217 c22 -24 12 -39 -15 -22 -34 21 -68 15 -84 -15 -11 -20 -15 -23 -16 -10 0
19 -15 23 -25 7 -3 -5 -11 -10 -17 -10 -19 0 12 28 55 49 53 26 79 26 102 1z
m-248 -66 c-3 -3 -12 -4 -19 -1 -8 3 -5 6 6 6 11 1 17 -2 13 -5z m353 -134 c0
-5 -2 -10 -4 -10 -3 0 -8 5 -11 10 -3 6 -1 10 4 10 6 0 11 -4 11 -10z m-19
-43 c-10 -9 -11 -8 -5 6 3 10 9 15 12 12 3 -3 0 -11 -7 -18z m59 4 c-15 -29
-13 -39 15 -67 20 -20 29 -23 44 -14 15 7 23 6 35 -6 11 -10 29 -15 54 -12 20
1 38 -1 40 -7 1 -6 -32 -13 -78 -17 -45 -4 -104 -14 -131 -23 -37 -13 -54 -14
-62 -6 -8 8 -6 15 9 26 12 9 14 14 6 15 -25 0 -1 20 24 20 15 0 23 4 19 10 -4
6 -12 7 -18 4 -8 -5 -8 -3 1 7 6 7 12 23 12 35 0 13 7 30 16 38 21 22 27 20
14 -3z m273 -108 c-13 -2 -33 -2 -45 0 -13 2 -3 4 22 4 25 0 35 -2 23 -4z
m-548 -58 c-14 -15 -28 -25 -31 -23 -2 3 8 17 22 32 15 14 29 24 32 22 2 -3
-8 -17 -23 -31z m131 2 c4 -4 0 -7 -9 -7 -9 0 -18 4 -21 9 -7 10 20 9 30 -2z
m-232 -82 c9 11 4 -8 -11 -42 -24 -58 -44 -80 -62 -68 -4 2 -20 22 -36 45 -31
45 -26 63 19 63 14 0 23 3 20 8 -3 5 9 1 25 -9 29 -16 31 -16 45 3z m481 -90
c191 -23 238 -36 110 -30 -55 3 -144 6 -198 7 -89 1 -97 2 -83 17 15 14 13 17
-12 38 l-27 23 35 -19 c23 -12 83 -25 175 -36z m-597 6 c22 -28 28 -42 20 -47
-13 -8 -68 51 -68 73 0 23 16 14 48 -26z m1016 16 c8 -12 7 -20 -2 -29 -15
-15 -23 -7 -26 27 -4 28 11 29 28 2z m156 13 c0 -5 8 -7 18 -4 14 5 14 4 2 -4
-10 -8 -18 -7 -28 0 -10 9 -12 8 -10 -3 2 -9 -4 -13 -17 -11 -28 5 -32 12 -15
22 20 13 50 13 50 0z m-1072 -66 c-7 -15 -14 -21 -16 -15 -2 7 2 18 8 26 18
22 21 18 8 -11z m188 -136 c5 -8 1 -5 -8 5 -11 12 -18 33 -17 56 l2 36 6 -42
c4 -23 11 -47 17 -55z m159 -116 c-3 -3 -11 0 -18 7 -9 10 -8 11 6 5 10 -3 15
-9 12 -12z m255 3 c0 -2 -13 -11 -30 -20 -36 -19 -133 -18 -180 1 -21 8 -25
12 -10 9 75 -16 157 -17 186 -2 33 18 34 19 34 12z m-575 -25 c-3 -5 -12 -10
-18 -10 -7 0 -6 4 3 10 19 12 23 12 15 0z m503 -97 c-10 -2 -26 -2 -35 0 -10
3 -2 5 17 5 19 0 27 -2 18 -5z m-769 -27 c-2 -2 -15 -9 -29 -16 -23 -12 -24
-12 -11 3 7 10 20 17 29 17 8 0 13 -2 11 -4z m-465 -274 c3 -5 -1 -9 -9 -9 -8
0 -12 4 -9 9 3 4 7 8 9 8 2 0 6 -4 9 -8z m203 -378 c-3 -3 -12 -4 -19 -1 -8 3
-5 6 6 6 11 1 17 -2 13 -5z m247 -53 c-2 -3 -12 3 -22 13 -16 17 -16 18 5 5
12 -7 20 -15 17 -18z m74 -8 c-10 -2 -28 -2 -40 0 -13 2 -5 4 17 4 22 1 32 -1
23 -4z"/>
<path d="M2308 2783 c6 -2 18 -2 25 0 6 3 1 5 -13 5 -14 0 -19 -2 -12 -5z"/>
<path d="M2215 2749 c-11 -16 -1 -19 13 -3 7 8 8 14 3 14 -5 0 -13 -5 -16 -11z"/>
<path d="M3098 2693 c6 -2 9 -10 6 -15 -4 -7 -2 -8 5 -4 13 9 5 26 -12 25 -9
0 -8 -2 1 -6z"/>
<path d="M3075 2650 c-16 -7 -17 -9 -3 -9 9 -1 20 4 23 9 7 11 7 11 -20 0z"/>
<path d="M2930 2584 l-35 -14 35 6 c40 7 76 24 50 23 -8 0 -31 -7 -50 -15z"/>
<path d="M2870 2570 c-9 -6 -10 -10 -3 -10 6 0 15 5 18 10 8 12 4 12 -15 0z"/>
<path d="M5130 3444 c-16 -10 -18 -13 -5 -8 27 10 71 8 124 -6 52 -13 64 -7
24 13 -38 19 -113 19 -143 1z m117 0 c-3 -3 -12 -4 -19 -1 -8 3 -5 6 6 6 11 1
17 -2 13 -5z"/>
<path d="M5310 3386 c0 -2 7 -7 16 -10 8 -3 12 -2 9 4 -6 10 -25 14 -25 6z"/>
<path d="M4230 3194 c0 -14 47 -76 65 -87 8 -4 15 -4 15 0 -1 13 -80 99 -80
87z"/>
<path d="M1105 3180 c3 -5 11 -10 16 -10 6 0 7 5 4 10 -3 6 -11 10 -16 10 -6
0 -7 -4 -4 -10z"/>
<path d="M1445 3171 c-6 -11 9 -23 19 -14 9 9 7 23 -3 23 -6 0 -12 -4 -16 -9z"/>
<path d="M1405 3150 c-3 -5 1 -10 10 -10 9 0 13 5 10 10 -3 6 -8 10 -10 10 -2
0 -7 -4 -10 -10z"/>
<path d="M2205 3125 c-51 -27 -115 -82 -115 -98 0 -5 19 6 43 25 23 19 52 38
64 42 18 6 21 4 16 -15 -7 -27 8 -36 75 -45 32 -4 56 -13 62 -23 8 -14 9 -14
10 3 0 13 5 17 19 13 25 -6 62 19 55 38 -3 8 -22 19 -42 26 -21 6 -43 19 -50
28 -11 14 -14 14 -23 1 -9 -13 -10 -13 -6 0 2 9 14 14 30 12 14 -1 28 1 30 6
3 4 -22 9 -56 10 -51 3 -71 -2 -112 -23z"/>
<path d="M1450 3126 c0 -2 9 -15 20 -28 10 -12 30 -36 44 -53 38 -46 43 -21 5
27 -18 24 -38 46 -44 50 -11 8 -25 10 -25 4z"/>
<path d="M1540 3076 c0 -2 7 -6 15 -10 8 -3 15 -1 15 4 0 6 -7 10 -15 10 -8 0
-15 -2 -15 -4z"/>
<path d="M1602 3068 c5 -15 28 -18 29 -3 0 6 -7 12 -17 13 -10 3 -15 -1 -12
-10z"/>
<path d="M1460 3007 c0 -9 5 -17 11 -17 6 0 9 -6 6 -14 -3 -7 3 -26 14 -42
l19 -29 -4 39 c-5 41 -46 98 -46 63z"/>
<path d="M1643 2982 c-2 -34 -1 -36 13 -18 17 24 18 56 2 56 -8 0 -14 -15 -15
-38z"/>
<path d="M1720 2992 c0 -29 32 -65 81 -92 67 -35 69 -36 69 -11 0 19 -41 55
-104 90 -41 23 -46 25 -46 13z"/>
<path d="M2839 2973 c-13 -16 -12 -17 4 -4 16 13 21 21 13 21 -2 0 -10 -8 -17
-17z"/>
<path d="M1600 2849 c0 -6 9 -13 20 -16 11 -3 20 -9 20 -14 0 -5 7 -6 15 -3
18 7 20 34 3 35 -7 0 -23 2 -35 5 -13 2 -23 -1 -23 -7z"/>
<path d="M5440 2839 c-18 -7 -21 -12 -11 -18 14 -9 62 9 55 21 -6 10 -12 9
-44 -3z"/>
<path d="M1400 2761 c-7 -15 -7 -21 0 -21 12 0 25 28 17 36 -3 3 -10 -4 -17
-15z"/>
<path d="M1865 2710 c-33 -5 -63 -6 -66 -4 -8 4 -19 -21 -19 -42 0 -8 12 -19
26 -25 21 -7 36 -5 67 10 21 11 45 17 51 15 7 -3 19 2 26 11 10 12 10 18 0 30
-7 8 -15 14 -19 14 -3 -1 -33 -5 -66 -9z"/>
<path d="M1685 2703 c-26 -7 -74 -41 -102 -73 -43 -48 -7 -94 40 -53 12 11 38
27 58 36 41 19 54 32 68 70 10 25 9 27 -17 26 -15 -1 -36 -4 -47 -6z"/>
<path d="M1420 2681 c0 -5 14 -14 30 -20 24 -8 30 -7 30 3 0 14 -21 26 -46 26
-8 0 -14 -4 -14 -9z"/>
<path d="M1422 2634 c10 -10 20 -15 24 -12 3 4 -5 12 -18 18 -22 12 -22 12 -6
-6z"/>
<path d="M5625 2630 c-3 -5 -1 -10 4 -10 6 0 11 5 11 10 0 6 -2 10 -4 10 -3 0
-8 -4 -11 -10z"/>
<path d="M3963 2514 c-7 -19 -65 -74 -200 -188 -116 -98 -146 -139 -147 -202
-1 -34 5 -49 28 -73 29 -30 29 -31 10 -46 -10 -8 -24 -15 -30 -15 -6 0 -17 -6
-23 -14 -9 -11 -6 -12 16 -9 16 2 39 4 52 4 77 -3 376 325 397 435 5 28 2 37
-17 54 -13 11 -34 23 -46 26 -13 3 -20 10 -17 15 3 5 0 9 -6 9 -6 0 -8 5 -5
10 3 6 4 10 0 10 -3 0 -8 -7 -12 -16z"/>
<path d="M5254 2512 c-6 -4 -16 -21 -22 -39 -8 -24 -8 -33 3 -36 9 -4 11 1 8
14 -3 11 2 28 12 39 19 21 18 34 -1 22z"/>
<path d="M4094 2214 c-9 -20 -28 -40 -41 -45 -12 -4 -23 -13 -23 -18 0 -14
-29 -21 -36 -9 -4 6 -3 8 3 5 5 -3 18 8 28 26 l18 32 -34 -31 c-68 -62 -201
-164 -262 -200 -34 -20 -70 -44 -79 -52 -20 -17 -25 -3 -6 16 7 7 8 12 2 12
-18 0 -106 -63 -169 -120 -113 -105 -190 -150 -290 -170 -77 -16 -103 -29 -56
-30 33 0 34 -1 15 -15 -10 -8 -14 -15 -9 -15 6 0 -19 -13 -55 -28 -85 -35
-170 -85 -204 -119 -15 -14 -52 -62 -82 -106 -31 -43 -65 -90 -77 -104 -19
-22 -90 -66 -109 -68 -3 0 -10 -4 -15 -9 -5 -5 -2 -6 6 -1 9 5 12 3 9 -6 -3
-8 -10 -13 -15 -12 -6 1 -16 -10 -22 -25 -12 -26 -12 -26 6 -9 31 27 51 20 74
-25 45 -90 87 -136 154 -169 55 -27 73 -31 122 -27 45 3 64 10 85 30 27 24 28
49 1 27 -9 -9 -13 -8 -13 0 0 9 -5 9 -22 0 -17 -9 -23 -9 -26 0 -3 9 -8 9 -17
1 -10 -8 -13 -7 -11 5 1 15 -24 34 -69 51 -16 7 -13 9 17 12 20 2 51 -3 70
-11 53 -21 118 -21 179 2 63 25 60 24 56 10 -1 -6 6 -13 15 -14 21 -4 96 66
131 122 l26 41 77 0 c57 1 87 -4 115 -19 21 -10 49 -19 61 -19 17 0 12 5 -21
20 -24 11 -59 34 -78 50 -21 19 -45 30 -64 30 -47 0 -87 26 -109 73 l-21 42
31 -35 c17 -19 35 -34 41 -33 5 2 9 -1 9 -5 0 -4 12 -8 28 -9 15 -1 21 1 15 4
-23 9 -13 20 13 15 19 -3 32 2 48 21 20 23 22 33 16 74 -5 27 -6 50 -5 51 9
10 45 -87 45 -122 0 -37 4 -43 40 -64 41 -23 90 -32 60 -11 -12 9 -11 10 7 6
15 -3 20 -1 17 8 -3 7 0 16 7 21 8 4 15 2 17 -5 3 -9 12 -5 28 10 29 27 30 36
5 63 -10 12 -22 32 -26 46 -5 21 -3 20 14 -7 22 -35 41 -43 41 -18 0 8 5 15
11 15 7 0 9 12 4 36 -5 27 -3 34 6 28 9 -5 10 -2 6 10 -4 9 0 33 8 53 13 31
13 34 0 23 -8 -7 -15 -8 -15 -2 0 5 7 15 15 22 13 11 16 8 21 -19 4 -17 10
-29 14 -26 12 8 21 -25 11 -42 -5 -10 -3 -36 6 -67 8 -28 17 -63 20 -78 7 -35
23 -37 23 -3 0 14 4 25 10 25 5 0 9 5 7 12 -1 8 16 15 47 18 49 6 81 32 72 56
-3 7 13 19 37 29 56 22 106 61 118 92 6 15 15 23 23 20 9 -4 24 9 40 34 16 23
34 39 46 39 15 0 20 7 20 26 0 23 3 25 23 19 32 -10 68 -7 84 7 11 9 17 9 24
-3 5 -9 9 -10 9 -2 0 6 -4 14 -9 17 -5 3 -11 15 -14 27 -4 16 -3 19 5 11 15
-15 38 -3 31 16 -4 9 -15 29 -25 45 l-20 27 -30 -25 c-16 -14 -42 -25 -58 -25
-17 0 -30 -6 -32 -15 -3 -12 -7 -12 -35 1 -34 17 -55 48 -25 37 16 -6 16 -5 1
13 -9 10 -20 26 -24 34 -6 12 -5 13 6 3 17 -17 30 -16 23 1 -4 11 7 14 56 13
34 0 66 5 72 11 9 9 8 12 -5 12 -28 0 -95 31 -101 47 -5 12 2 14 39 11 30 -2
45 1 45 9 0 6 -6 14 -12 16 -10 4 -10 6 0 6 6 1 12 8 12 16 0 17 16 20 25 5 6
-11 65 18 65 31 0 4 -28 15 -62 25 -52 16 -75 31 -140 92 -43 39 -82 72 -87
72 -6 0 -8 6 -5 14 3 8 -4 16 -18 20 -35 9 -36 9 -54 -30z m257 -164 c18 0 45
-27 36 -36 -9 -9 -70 29 -75 46 -4 12 -2 13 9 3 7 -7 21 -13 30 -13z m-409
-335 c19 -8 49 -30 66 -49 16 -19 33 -32 36 -29 3 4 6 -3 6 -14 0 -42 -74 -86
-122 -72 -23 6 -31 3 -48 -18 l-20 -26 0 26 c0 38 27 60 64 52 17 -4 38 -8 46
-8 27 -3 21 30 -15 73 -35 42 -60 80 -52 80 3 0 20 -7 39 -15z m115 -47 c-3
-8 -6 -5 -6 6 -1 11 2 17 5 13 3 -3 4 -12 1 -19z m133 -104 c-16 -19 -54 -18
-71 2 -11 13 -9 14 13 9 20 -5 30 -1 44 18 18 23 19 24 22 6 2 -11 -2 -27 -8
-35z m-729 -115 c5 -8 9 -30 9 -50 l0 -37 -79 47 c-66 38 -75 47 -58 52 37 10
119 2 128 -12z m-149 -140 c-7 -11 -10 -30 -6 -42 6 -20 6 -20 -10 -4 -13 12
-14 21 -7 35 6 11 7 23 3 27 -4 5 -1 4 7 0 11 -6 13 -4 7 11 -6 15 -5 17 6 6
10 -10 10 -16 0 -33z m-279 -73 c14 -3 33 -3 42 0 10 4 22 -1 32 -16 14 -19
22 -22 64 -18 60 6 63 -5 7 -25 -29 -10 -36 -16 -21 -16 32 -1 73 17 73 32 0
8 9 22 20 32 20 18 21 18 14 -1 -4 -10 -13 -28 -21 -39 -7 -11 -13 -24 -13
-30 0 -5 9 4 19 21 17 29 50 60 39 38 -45 -93 -54 -117 -57 -146 -1 -5 -10 -8
-21 -8 -11 0 -20 -5 -20 -11 0 -5 -4 -7 -10 -4 -5 3 -24 -2 -41 -11 -38 -19
-126 -15 -140 7 -5 8 -9 10 -9 5 0 -5 -7 -3 -15 4 -19 16 -20 54 -1 47 8 -3
18 5 25 19 14 31 14 74 1 74 -5 0 -10 -7 -10 -15 0 -8 -5 -15 -11 -15 -7 0 -9
10 -5 25 4 17 2 25 -6 25 -9 0 -9 3 2 9 8 6 18 7 23 4 5 -3 7 9 3 28 -5 26 -4
29 3 13 5 -12 21 -24 34 -28z m-246 -65 c-5 -2 -13 2 -17 9 -4 7 -13 9 -20 5
-9 -6 -9 -3 -1 13 6 12 11 25 10 29 -5 28 5 22 20 -12 11 -23 14 -42 8 -44z
m43 8 c0 -6 -4 -7 -10 -4 -5 3 -10 11 -10 16 0 6 5 7 10 4 6 -3 10 -11 10 -16z
m60 -129 c0 -5 -2 -10 -4 -10 -3 0 -8 5 -11 10 -3 6 -1 10 4 10 6 0 11 -4 11
-10z"/>
<path d="M3027 1166 c-5 -15 -6 -31 -2 -34 3 -3 5 0 5 6 0 7 5 11 12 10 6 -2
13 6 15 17 3 15 2 17 -5 6 -8 -11 -11 -10 -14 5 -3 15 -6 13 -11 -10z"/>
<path d="M3076 1143 c-11 -42 -17 -83 -11 -83 3 0 12 15 20 33 14 30 15 31 21
10 8 -27 11 -28 31 -8 18 19 10 47 -12 39 -8 -4 -17 1 -21 10 -8 21 -21 20
-28 -1z"/>
<path d="M3206 1118 c-9 -37 -7 -43 9 -22 16 21 19 44 6 44 -5 0 -11 -10 -15
-22z"/>
<path d="M3027 1100 c3 -11 7 -20 9 -20 2 0 4 9 4 20 0 11 -4 20 -9 20 -5 0
-7 -9 -4 -20z"/>
<path d="M5322 2212 c-23 -16 -65 -39 -92 -52 -53 -25 -58 -33 -37 -55 11 -10
120 -14 178 -6 13 2 69 65 69 78 0 18 -45 63 -62 63 -7 0 -32 -13 -56 -28z"/>
<path d="M4073 2218 c-23 -30 -24 -41 -2 -21 12 12 20 25 17 28 -3 3 -10 0
-15 -7z"/>
<path d="M4210 2221 c0 -18 62 -93 92 -111 36 -22 86 -35 96 -25 7 7 -50 59
-113 104 -45 31 -75 44 -75 32z"/>
<path d="M4756 2078 c-16 -6 -40 -16 -54 -23 -24 -13 -23 -14 21 -20 69 -11
142 29 91 49 -19 7 -22 7 -58 -6z"/>
<path d="M5062 2047 c-22 -24 -31 -45 -35 -80 -5 -53 -47 -129 -88 -159 -25
-19 -26 -19 -72 3 -26 13 -49 21 -51 18 -11 -11 22 -93 40 -100 21 -7 52 -39
38 -39 -13 0 29 -34 58 -47 15 -7 28 -9 30 -5 2 4 35 29 73 55 59 40 77 47
118 47 l47 0 0 41 c0 34 -7 48 -49 92 -47 51 -85 107 -62 93 6 -4 11 -2 11 5
0 7 7 4 15 -7 14 -18 14 -17 5 9 -14 40 -13 47 9 47 10 0 21 6 24 14 4 10 -7
19 -38 29 l-43 15 -30 -31z m-87 -297 c-3 -5 -16 -10 -28 -9 -20 1 -20 2 3 9
14 4 26 8 28 9 2 1 0 -3 -3 -9z"/>
<path d="M4635 2027 c-50 -16 -89 -64 -52 -64 6 0 28 -3 48 -7 49 -9 69 12 48
53 -13 26 -17 27 -44 18z"/>
<path d="M4897 1990 c-25 -42 -22 -53 11 -36 15 8 36 21 46 29 18 13 18 14
-11 24 -27 10 -31 8 -46 -17z"/>
<path d="M4517 1953 c-12 -11 -8 -21 13 -26 17 -4 18 -2 9 14 -11 21 -13 22
-22 12z"/>
<path d="M4496 1905 c4 -8 10 -12 16 -9 5 3 19 -2 31 -13 14 -12 18 -13 9 -2
-6 9 -8 20 -4 24 4 5 2 5 -5 1 -6 -3 -14 -2 -18 4 -10 16 -35 12 -29 -5z"/>
<path d="M4673 1913 c9 -2 23 -2 30 0 6 3 -1 5 -18 5 -16 0 -22 -2 -12 -5z"/>
<path d="M4452 1850 c-10 -27 -8 -31 17 -49 24 -18 32 -19 55 -8 32 15 33 37
3 65 -33 32 -63 28 -75 -8z"/>
<path d="M4585 1840 c10 -11 20 -20 23 -20 3 0 -3 9 -13 20 -10 11 -20 20 -23
20 -3 0 3 -9 13 -20z"/>
<path d="M4603 1746 c-19 -21 -26 -23 -58 -16 -33 7 -37 6 -46 -17 -5 -13 -9
-28 -9 -32 0 -4 -11 -18 -25 -31 -22 -21 -29 -22 -60 -13 -22 7 -35 8 -35 1 0
-20 76 -102 107 -115 73 -30 194 -9 293 53 61 38 86 69 69 89 -12 16 -184 105
-201 105 -8 0 -24 -11 -35 -24z"/>
<path d="M5112 1709 c-34 -13 -112 -71 -112 -82 0 -5 25 -8 59 -5 43 3 71 12
102 32 l43 29 -23 18 c-26 21 -35 22 -69 8z"/>
<path d="M3080 1640 c0 -5 5 -10 11 -10 5 0 7 5 4 10 -3 6 -8 10 -11 10 -2 0
-4 -4 -4 -10z"/>
<path d="M2942 1533 c-24 -8 -41 -17 -39 -19 4 -5 97 26 97 32 0 6 -11 4 -58
-13z"/>
<path d="M2636 1505 c-10 -8 -23 -12 -29 -8 -6 3 -7 1 -3 -5 3 -6 -3 -26 -14
-44 -49 -80 3 -191 80 -171 13 3 40 34 66 75 25 38 58 77 74 86 29 16 43 40
18 27 -7 -3 -5 0 6 7 10 7 28 21 40 30 20 16 19 16 -22 6 -32 -8 -54 -8 -81 1
-52 15 -112 13 -135 -4z"/>
<path d="M4750 1491 c-52 -17 -53 -18 -19 -18 20 -1 46 7 60 18 28 22 29 22
-41 0z"/>
<path d="M3960 1281 c0 -6 -14 -27 -32 -47 l-32 -36 38 16 c21 9 40 16 42 16
9 0 3 49 -6 55 -5 3 -10 2 -10 -4z"/>
<path d="M3768 1242 c-20 -12 -28 -25 -28 -44 0 -32 1 -33 40 -13 32 16 55 50
45 65 -9 14 -26 12 -57 -8z"/>
<path d="M2376 1229 c-30 -24 -66 -88 -66 -118 0 -74 81 -115 149 -75 35 21
72 79 78 123 8 57 -25 91 -86 91 -34 0 -56 -6 -75 -21z"/>
<path d="M2073 980 c-50 -12 -101 -56 -112 -96 -14 -49 1 -82 45 -100 35 -14
39 -14 89 11 93 45 148 128 109 165 -23 22 -86 31 -131 20z m-26 -90 c2 -22
-4 -24 -26 -11 -11 7 -10 11 5 20 11 6 19 11 19 11 1 0 1 -9 2 -20z m111 -12
c-3 -7 -20 -21 -38 -31 -24 -13 -30 -14 -22 -4 7 8 12 19 11 23 -3 19 2 24 27
24 16 0 24 -5 22 -12z"/>
<path d="M1954 708 c-10 -13 -12 -17 -4 -10 8 6 33 12 56 12 24 0 46 5 49 10
4 6 -11 10 -38 10 -33 0 -48 -5 -63 -22z"/>
</g>
</svg>
